<svg xmlns="http://www.w3.org/2000/svg" width="25.000000pt" height="25.000000pt" viewBox="0 0 372.000000 468.000000" preserveAspectRatio="xMidYMid meet">
	<g transform="translate(0.000000,468.000000) scale(0.100000,-0.100000)" fill="#00004d" stroke="none">
		<path d="M985 4341 l-809 -296 85 -3 86 -3 6 -1027 c4 -565 7 -1354 7 -1754
		l0 -728 200 0 200 0 0 400 0 400 1050 0 1050 0 0 -400 0 -400 200 0 200 0 0
		1755 0 1754 95 3 95 3 -823 298 c-452 164 -824 297 -827 296 -3 -1 -369 -135
		-815 -298z m324 -276 l61 -7 -43 -49 -44 -50 9 -56 c5 -31 7 -58 4 -60 -3 -3
		-27 7 -55 22 l-49 27 -58 -33 c-38 -21 -55 -27 -52 -17 4 8 9 39 13 69 6 53 6
		54 -34 94 -23 21 -41 42 -41 46 0 4 27 10 59 14 l59 7 27 61 27 62 28 -61 28
		-62 61 -7z m620 0 l61 -7 -43 -51 c-43 -52 -43 -52 -34 -105 5 -30 6 -56 4
		-59 -3 -3 -28 7 -56 22 l-49 27 -58 -33 c-38 -21 -55 -27 -52 -17 4 8 9 39 13
		69 6 53 6 54 -34 94 -23 21 -41 42 -41 46 0 4 27 10 59 14 l59 7 28 61 27 62
		28 -61 27 -62 61 -7z m621 0 l61 -7 -44 -52 c-43 -51 -43 -51 -34 -104 5 -30
		6 -56 4 -59 -3 -3 -28 7 -56 22 l-49 27 -58 -33 c-38 -21 -55 -27 -52 -17 4 8
		9 39 13 69 6 53 6 54 -34 94 -23 21 -41 42 -41 46 0 4 27 10 59 14 l59 7 28
		61 28 62 27 -61 28 -62 61 -7z m-1492 -672 l2 -253 -150 0 -150 0 0 255 0 254
		148 -2 147 -2 3 -252z m900 0 l2 -253 -150 0 -150 0 0 254 0 254 148 -2 147
		-1 3 -252z m920 0 l2 -253 -150 0 -150 0 0 254 0 255 148 -2 147 -2 3 -252z
		m-1818 -1003 l0 -250 -150 0 -150 0 0 250 0 250 150 0 150 0 0 -250z m900 0
		l0 -250 -150 0 -150 0 0 250 0 250 150 0 150 0 0 -250z m920 0 l0 -250 -150 0
		-150 0 0 250 0 250 150 0 150 0 0 -250z"/>
		<path d="M67 433 c-4 -3 -7 -73 -7 -155 l0 -148 1750 0 1750 0 0 155 0 155
		-1743 0 c-959 0 -1747 -3 -1750 -7z"/>
	</g>
</svg>