<svg xmlns="http://www.w3.org/2000/svg" width="25.000000pt" height="25.000000pt" viewBox="0 0 217.000000 158.000000" preserveAspectRatio="xMidYMid meet">
	<g transform="translate(0.000000,158.000000) scale(0.100000,-0.100000)" fill="#00004d" stroke="none">
		<path d="M654 1476 c-45 -20 -60 -68 -39 -128 63 -189 268 -705 287 -726 13
		-13 41 -33 63 -43 36 -17 71 -19 394 -19 340 0 356 1 398 21 24 12 54 35 67
		53 35 46 286 718 286 765 0 27 -7 44 -26 62 l-26 24 -686 2 c-565 2 -693 0
		-718 -11z"/>
		<path d="M118 1224 c-48 -26 -60 -71 -33 -124 22 -42 64 -51 221 -49 l138 1
		139 -324 c128 -297 143 -326 177 -351 32 -22 49 -27 101 -27 l62 0 -20 -23
		c-32 -35 -43 -62 -43 -108 0 -167 244 -190 284 -26 9 38 -9 98 -39 131 l-24
		26 256 0 256 0 -20 -22 c-32 -36 -43 -63 -43 -109 0 -167 244 -190 284 -26 9
		39 -9 99 -39 130 l-25 25 34 6 c65 12 98 91 61 143 -28 40 -73 43 -537 43
		l-443 -1 -140 326 c-175 406 -141 374 -400 374 -140 0 -186 -3 -207 -15z"/>
	</g>
</svg>