<svg xmlns="http://www.w3.org/2000/svg" width="15.000000pt" height="15.000000pt" viewBox="0 0 801.000000 583.000000" preserveAspectRatio="xMidYMid meet">
	<g transform="translate(0.000000,583.000000) scale(0.100000,-0.100000)" fill="#000" stroke="none">
		<path d="M217 5813 c-103 -31 -187 -160 -174 -266 9 -68 31 -105 139 -238 57
		-69 181 -222 277 -340 96 -118 183 -223 193 -234 21 -24 229 -279 494 -605 42
		-52 94 -115 115 -140 21 -25 74 -90 119 -145 183 -225 279 -343 350 -429 42
		-50 104 -127 139 -171 35 -44 70 -87 78 -95 42 -46 183 -222 183 -228 0 -6
		-313 -394 -433 -537 -37 -44 -267 -324 -279 -340 -4 -5 -45 -56 -90 -111 -46
		-56 -108 -132 -138 -169 -30 -38 -67 -82 -81 -99 -15 -17 -93 -112 -173 -211
		-206 -252 -377 -461 -474 -579 -46 -56 -88 -108 -95 -116 -7 -8 -62 -76 -123
		-150 -200 -245 -212 -266 -200 -366 12 -105 86 -192 183 -215 21 -5 481 -9
		1042 -9 l1004 0 51 24 c60 29 74 43 239 246 169 210 348 429 525 645 82 99
		186 227 232 285 47 58 88 107 91 110 5 4 177 215 356 436 36 44 49 60 163 199
		45 55 93 115 108 133 15 18 35 43 46 55 17 20 156 190 414 506 56 69 110 142
		120 161 22 44 23 156 2 196 -19 37 -119 167 -207 268 -37 43 -80 96 -95 117
		-15 21 -80 102 -145 181 -65 79 -145 177 -178 218 -33 41 -66 81 -72 88 -7 7
		-77 92 -155 189 -79 97 -201 246 -272 332 -70 86 -150 183 -177 216 -120 148
		-253 310 -259 315 -3 3 -69 83 -145 178 -280 347 -507 622 -537 649 -13 13
		-50 32 -83 43 -57 20 -80 20 -1044 19 -833 -1 -993 -3 -1034 -16z"/>
		<path d="M3343 5811 c-55 -19 -119 -74 -145 -126 -44 -85 -35 -179 25 -264 56
		-78 132 -173 187 -234 25 -27 49 -57 54 -66 5 -9 17 -24 26 -33 10 -9 66 -78
		125 -152 59 -75 112 -136 118 -136 6 0 8 -3 4 -6 -3 -4 31 -50 76 -103 46 -53
		92 -108 102 -122 34 -45 227 -283 244 -300 20 -20 29 -32 160 -194 58 -71 108
		-132 111 -135 3 -3 13 -14 21 -26 17 -25 71 -91 154 -189 33 -38 87 -104 120
		-145 66 -83 81 -101 110 -135 11 -12 58 -71 105 -131 47 -59 99 -122 116 -141
		18 -18 29 -33 26 -33 -3 0 3 -8 14 -18 10 -10 35 -38 54 -62 19 -24 52 -63 73
		-87 20 -25 37 -47 37 -51 0 -4 -12 -20 -26 -37 -48 -57 -59 -70 -104 -125 -25
		-30 -58 -71 -75 -90 -16 -20 -41 -51 -55 -70 -14 -19 -39 -50 -56 -70 -17 -19
		-56 -65 -85 -101 -30 -37 -90 -111 -134 -165 -44 -54 -90 -109 -102 -122 -12
		-14 -37 -45 -55 -69 -18 -25 -46 -59 -61 -76 -15 -17 -38 -44 -50 -60 -26 -35
		-218 -270 -226 -277 -13 -12 -99 -118 -121 -150 -13 -19 -30 -39 -36 -45 -12
		-10 -90 -104 -149 -180 -16 -21 -44 -55 -61 -74 -17 -20 -71 -85 -119 -146
		-49 -60 -95 -118 -104 -127 -9 -9 -20 -23 -26 -30 -35 -45 -189 -234 -240
		-294 -199 -234 -206 -245 -201 -346 4 -82 19 -118 74 -177 72 -78 -4 -73 1121
		-72 553 0 1022 3 1040 6 47 6 118 57 166 118 34 43 85 106 173 212 9 11 35 43
		57 70 21 28 42 52 45 55 4 3 42 50 86 105 43 55 124 155 179 222 55 67 115
		141 132 165 36 48 78 97 122 143 16 17 44 51 63 76 37 50 54 70 79 98 8 9 22
		26 30 37 8 12 34 45 59 74 25 29 61 72 80 94 19 23 71 87 115 141 44 55 82
		102 85 105 3 3 30 36 60 75 62 78 88 111 110 135 25 27 90 107 200 245 58 72
		142 175 188 230 47 55 97 116 113 135 15 19 52 64 82 100 122 148 148 207 133
		303 -10 59 -42 110 -159 250 -56 67 -140 169 -186 227 -47 58 -96 116 -109
		130 -12 14 -42 50 -65 80 -47 62 -167 208 -211 257 -16 18 -37 44 -45 57 -9
		13 -83 106 -166 206 -141 171 -180 219 -258 314 -18 21 -37 44 -42 50 -6 6
		-26 31 -44 56 -19 25 -43 54 -52 65 -27 30 -213 256 -309 375 -46 58 -87 107
		-90 110 -3 3 -43 52 -90 110 -46 58 -86 107 -89 110 -4 3 -18 21 -33 40 -15
		19 -37 47 -50 61 -13 15 -34 41 -48 59 -62 81 -194 236 -209 244 -8 5 -25 18
		-35 28 -11 10 -25 18 -30 19 -6 0 -20 3 -31 7 -11 3 -470 7 -1020 9 -942 2
		-1003 1 -1052 -16z"/>
	</g>
</svg>
