<svg xmlns="http://www.w3.org/2000/svg" width="25.000000pt" height="25.000000pt" viewBox="0 0 450.000000 470.000000" preserveAspectRatio="xMidYMid meet">
	<g transform="translate(0.000000,470.000000) scale(0.100000,-0.100000)" fill="#00004d" stroke="none">
		<path d="M2085 4694 c-151 -16 -287 -40 -401 -69 -692 -177 -1265 -687 -1529
		-1359 -101 -259 -149 -516 -149 -811 -1 -248 24 -422 90 -650 175 -594 612
		-1106 1180 -1380 203 -98 459 -175 694 -206 140 -19 450 -17 590 5 395 60 726
		197 1040 429 122 91 356 325 448 449 297 399 446 850 446 1348 0 500 -147 945
		-446 1348 -84 114 -270 308 -383 399 -316 256 -691 419 -1098 479 -101 15
		-406 26 -482 18z m403 -145 c353 -38 706 -176 1011 -396 115 -81 343 -306 430
		-421 209 -277 341 -583 408 -942 25 -136 25 -544 0 -680 -82 -444 -268 -812
		-566 -1122 -315 -329 -710 -538 -1181 -625 -136 -25 -544 -25 -680 0 -359 67
		-667 200 -942 408 -108 82 -318 292 -397 397 -174 231 -296 484 -366 756 -51
		202 -60 277 -60 526 0 243 8 316 55 510 145 592 556 1104 1107 1379 237 118
		450 180 738 214 70 9 353 6 443 -4z"/>
		<path d="M1730 2780 l0 -1020 -50 0 -50 0 0 685 0 685 -315 0 -315 0 -2 -682
		-3 -683 -50 0 -50 0 -3 93 c-2 82 -5 93 -20 88 -9 -2 -80 -19 -158 -36 -154
		-34 -341 -84 -351 -94 -19 -19 124 -324 215 -461 462 -691 1269 -1025 2077
		-860 541 110 1020 450 1310 930 78 128 187 376 172 391 -9 9 -171 52 -347 93
		l-165 38 -3 -94 -3 -94 -57 3 -57 3 -3 793 -2 792 -365 0 -365 0 0 -795 0
		-795 -50 0 -50 0 0 1020 0 1020 -470 0 -470 0 0 -1020z m370 660 l0 -120 -90
		0 -90 0 0 120 0 120 90 0 90 0 0 -120z m350 0 l0 -120 -85 0 -85 0 0 120 0
		120 85 0 85 0 0 -120z m610 -375 l0 -95 -70 0 -70 0 0 95 0 95 70 0 70 0 0
		-95z m270 0 l0 -95 -65 0 -65 0 0 95 0 95 65 0 65 0 0 -95z m-bullet-arrow2 -87 l-3
		-bullet-arrow -85 0 -85 0 -3 109 c-1 61 0 116 2 bullet-arrow 4 9 29 13 91 13 l86 0 -3 -122z
		m350 0 l-3 -bullet-arrow -82 -3 -83 -3 0 126 0 125 85 0 86 0 -3 -122z m-1208 -93 l0
		-86 -57 3 -58 3 -3 83 -3 82 61 0 60 0 0 -85z m240 0 l0 -86 -57 3 -58 3 -3
		83 -3 82 61 0 60 0 0 -85z m1580 -180 l0 -95 -70 0 -70 0 0 95 0 95 70 0 70 0
		0 -95z m270 0 l0 -95 -65 0 -65 0 0 95 0 95 65 0 65 0 0 -95z m-2090 -130 l0
		-85 -54 0 c-52 0 -54 1 -60 31 -8 42 -8 124 1 132 3 4 30 7 60 7 l53 0 0 -85z
		m240 0 l0 -85 -54 0 c-52 0 -54 1 -60 31 -8 42 -8 124 1 132 3 4 30 7 60 7
		l53 0 0 -85z m616 -35 c1 -52 0 -107 -3 -122 -5 -28 -5 -28 -83 -28 l-79 0 -3
		118 c-2 64 -2 121 0 125 2 4 40 6 85 5 l82 -3 1 -95z m352 -27 l3 -bullet-arrow -85 0
		-85 0 -3 58 c-2 31 -1 88 0 125 l4 68 81 -3 82 -3 3 -122z m607 -173 l0 -95
		-65 0 -65 0 -3 98 -3 98 68 -3 68 -3 0 -95z m275 0 l0 -100 -65 0 -65 0 0 100
		0 100 65 0 65 0 0 -100z m-2090 -85 l0 -86 -57 3 -58 3 0 83 0 82 57 0 58 0 0
		-85z m240 0 l0 -86 -57 3 -58 3 -3 83 -3 82 61 0 60 0 0 -85z"/>
	</g>
</svg>