<svg xmlns="http://www.w3.org/2000/svg" width="25.000000pt" height="25.000000pt" viewBox="0 0 200.000000 200.000000" preserveAspectRatio="xMidYMid meet">
	<g transform="translate(0.000000,200.000000) scale(0.100000,-0.100000)" fill="#00004d" stroke="none">
		<path d="M392 1883 c-44 -21 -165 -135 -194 -181 -21 -34 -23 -47 -22 -167 6
		-518 340 -1051 811 -1293 242 -124 525 -177 640 -120 54 27 164 125 194 174
		28 46 23 128 -12 199 -22 44 -34 54 -95 85 -78 39 -251 99 -311 107 -49 6 -78
		-8 -168 -82 -37 -30 -73 -55 -80 -55 -60 0 -371 283 -457 415 -56 85 -118 204
		-118 226 0 9 36 52 79 96 58 58 81 89 86 114 8 41 -34 259 -66 346 -26 71 -40
		87 -104 124 -58 34 -130 38 -183 12z"/>
	</g>
</svg>