<svg xmlns="http://www.w3.org/2000/svg" width="25.000000pt" height="25.000000pt" viewBox="0 0 225.000000 225.000000" preserveAspectRatio="xMidYMid meet">
	<g transform="translate(0.000000,225.000000) scale(0.100000,-0.100000)" fill="#00004d" stroke="none">
		<path d="M981 2230 c-153 -41 -261 -112 -349 -229 -88 -115 -142 -288 -128
		-409 14 -122 84 -283 222 -515 49 -83 78 -140 71 -142 -7 -2 -48 -13 -92 -25
		-156 -42 -310 -135 -378 -228 -50 -67 -68 -123 -68 -206 0 -135 89 -253 257
		-343 400 -211 1100 -159 1361 102 85 85 113 146 112 245 0 41 -6 91 -13 112
		-47 132 -224 262 -431 318 -44 11 -85 23 -92 25 -8 3 20 58 73 145 94 156 151
		272 192 389 85 245 -34 545 -273 690 -136 83 -319 111 -464 71z m231 -171
		c180 -39 319 -184 349 -366 31 -187 -71 -378 -248 -465 -65 -32 -72 -33 -188
		-33 -116 0 -123 1 -188 33 -176 87 -279 278 -248 464 41 249 283 418 523 367z
		m-200 -1409 c42 -58 85 -113 96 -123 20 -18 21 -18 79 55 32 40 74 97 93 126
		42 62 56 64 186 26 240 -69 377 -190 334 -294 -19 -47 -105 -119 -186 -156
		-151 -70 -317 -98 -539 -91 -183 5 -313 32 -440 91 -80 37 -166 109 -185 156
		-39 94 72 211 260 274 89 29 213 56 221 47 3 -3 40 -53 81 -111z"/>
	</g>
</svg>