<svg version="1.0" xmlns="http://www.w3.org/2000/svg"
 width="256.000000pt" height="256.000000pt" viewBox="0 0 256.000000 256.000000"
 preserveAspectRatio="xMidYMid meet">
	<g transform="translate(0.000000,256.000000) scale(0.100000,-0.100000)"
	fill="#00004d" stroke="none">
		<path d="M362 2314 c-57 -28 -96 -69 -123 -129 -18 -38 -19 -89 -19 -905 0
		-816 1 -867 19 -905 27 -60 66 -101 123 -129 l52 -26 866 0 866 0 52 26 c57
		28 96 69 123 129 18 38 19 89 19 906 l0 865 -26 52 c-28 57 -69 96 -129 123
		-38 18 -89 19 -906 19 l-865 0 -52 -26z m1799 -97 c18 -12 44 -38 56 -56 l23
		-34 0 -847 0 -847 -23 -34 c-12 -18 -38 -44 -56 -56 l-34 -23 -847 0 -847 0
		-34 23 c-18 12 -44 38 -56 56 l-23 34 0 847 0 847 23 34 c12 18 38 44 56 56
		l34 23 847 0 847 0 34 -23z"/>
		<path d="M1645 2071 c-84 -23 -139 -66 -183 -140 -24 -40 -27 -56 -27 -131 0
		-101 18 -143 88 -207 140 -129 368 -75 443 104 24 56 21 158 -6 215 -28 60
		-83 116 -138 140 -50 22 -133 31 -177 19z"/>
		<path d="M892 1542 c-15 -10 -422 -985 -422 -1012 0 -10 7 -26 16 -34 14 -14
		99 -16 785 -16 512 0 777 3 790 10 42 23 25 57 -192 379 -265 392 -229 380
		-384 124 -60 -100 -113 -179 -116 -175 -4 4 -96 165 -204 357 -109 193 -205
		356 -213 363 -18 14 -41 15 -60 4z"/>
	</g>
</svg>
