<svg xmlns="http://www.w3.org/2000/svg" width="25.000000pt" height="25.000000pt" viewBox="0 0 601.000000 576.000000" preserveAspectRatio="xMidYMid meet">
	<g transform="translate(0.000000,576.000000) scale(0.100000,-0.100000)" fill="#00004d" stroke="none">
		<path d="M2873 5568 c-46 -25 -2735 -2826 -2765 -2881 -27 -49 -23 -106 12
		-158 16 -24 78 -93 138 -153 101 -99 113 -109 154 -113 60 -7 89 10 173 99 38
		40 563 589 1168 1220 1200 1254 1125 1183 1216 1158 44 -12 -81 117 1545
		-1582 478 -500 851 -882 867 -889 16 -6 48 -9 71 -6 36 5 54 19 150 114 60 59
		122 128 138 152 35 52 39 109 13 158 -10 17 -362 390 -783 829 -1557 1625
		-1877 1960 -1911 1998 -32 38 -97 75 -129 76 -9 0 -34 -10 -57 -22z"/>
		<path d="M4121 5442 c-19 -9 -44 -30 -55 -45 -20 -27 -21 -41 -21 -320 l0
		-292 25 -41 c36 -61 560 -604 581 -604 10 0 26 11 34 24 14 21 15 93 13 607
		-3 563 -4 585 -23 618 -39 65 -63 71 -305 71 -185 0 -220 -2 -249 -18z"/>
		<path d="M2899 4493 c-9 -2 -203 -199 -430 -436 -228 -238 -693 -724 -1034
		-1080 -474 -494 -627 -660 -650 -704 l-30 -57 -3 -910 c-3 -1012 -6 -964 64
		-1025 18 -17 52 -35 74 -41 27 -7 239 -10 657 -8 554 3 621 5 648 20 40 22 91
		77 104 111 8 19 11 263 11 740 0 459 4 725 10 749 14 50 55 97 105 119 37 17
		76 19 520 19 444 0 483 -2 520 -19 50 -22 91 -69 105 -119 6 -24 10 -290 10
		-750 0 -575 3 -719 13 -745 17 -39 87 -104 124 -114 36 -10 1229 -10 1265 0
		42 11 95 63 113 110 14 38 15 139 13 953 l-3 910 -30 57 c-23 45 -259 296
		-1063 1136 -568 594 -1043 1082 -1055 1085 -24 6 -33 6 -58 -1z"/>
	</g>
</svg>