<svg version="1.0" xmlns="http://www.w3.org/2000/svg"
 width="1169.000000pt" height="256.000000pt" viewBox="0 0 1169.000000 256.000000"
 preserveAspectRatio="xMidYMid meet">
	<g transform="translate(0.000000,256.000000) scale(0.100000,-0.100000)"
	fill="#000000" stroke="none">
		<path d="M5830 2030 l0 -520 -2840 0 -2840 0 0 -755 c0 -497 3 -755 10 -755 7
		0 10 255 10 745 l0 745 700 0 700 0 0 -745 c0 -490 3 -745 10 -745 7 0 10 255
		10 745 l0 745 700 0 700 0 0 -745 c0 -490 3 -745 10 -745 7 0 10 255 10 745
		l0 745 700 0 700 0 0 -745 c0 -490 3 -745 10 -745 7 0 10 255 10 745 l0 745
		700 0 700 0 0 -745 c0 -490 3 -745 10 -745 7 0 10 255 10 745 l0 745 700 0
		700 0 0 -745 c0 -490 3 -745 10 -745 7 0 10 255 10 745 l0 745 700 0 700 0 0
		-745 c0 -490 3 -745 10 -745 7 0 10 255 10 745 l0 745 700 0 700 0 0 -745 c0
		-490 3 -745 10 -745 7 0 10 255 10 745 l0 745 700 0 700 0 0 -745 c0 -493 3
		-745 10 -745 7 0 9 253 8 753 l-3 752 -2837 3 -2838 2 0 520 c0 340 -3 520
		-10 520 -7 0 -10 -180 -10 -520z"/>
	</g>
</svg>
