<svg version="1.0" xmlns="http://www.w3.org/2000/svg"
 width="225.000000pt" height="225.000000pt" viewBox="0 0 225.000000 225.000000"
 preserveAspectRatio="xMidYMid meet">
	<g transform="translate(0.000000,225.000000) scale(0.100000,-0.100000)"
	fill="#00004d" stroke="none">
		<path d="M872 2066 c-13 -7 -32 -26 -43 -42 -17 -27 -19 -49 -19 -262 0 -199
		2 -238 16 -262 27 -45 63 -60 148 -60 l76 0 0 -120 0 -119 -349 -3 c-335 -3
		-351 -4 -377 -24 -64 -47 -69 -62 -72 -225 l-3 -149 -75 0 c-47 0 -86 -6 -104
		-15 -56 -29 -60 -51 -60 -305 0 -337 -14 -323 332 -318 l238 3 32 33 33 32 0
		251 0 251 -37 34 c-36 33 -41 34 -118 34 l-80 0 0 120 0 120 320 0 320 0 0
		-120 0 -120 -76 0 c-85 0 -121 -15 -148 -60 -14 -24 -16 -63 -16 -260 0 -336
		-14 -322 336 -318 l236 3 34 37 34 38 0 241 0 241 -39 39 c-39 39 -39 39 -120
		39 l-81 0 0 120 0 120 320 0 320 0 0 -120 0 -120 -76 0 c-85 0 -121 -15 -148
		-60 -14 -24 -16 -64 -16 -264 l0 -236 34 -38 34 -37 251 0 251 0 32 33 33 32
		3 238 c3 204 1 241 -13 268 -26 48 -62 64 -148 64 l-76 0 -3 148 c-3 146 -3
		149 -32 186 -49 65 -57 66 -431 66 l-335 0 0 120 0 120 80 0 c77 0 82 1 118
		34 l37 34 3 247 3 246 -39 40 -40 39 -238 0 c-175 -1 -245 -4 -262 -14z"/>
	</g>
</svg>
