<svg xmlns="http://www.w3.org/2000/svg" width="800px" height="1000px" x="800" viewBox = "0 0 1000 1000" preserveAspectRatio="none">
	<g transform="translate(0.000000,1000.000000) scale(0.100000,-0.100000)" fill="#000766" stroke="none">
		<path d="M3779 8328 c-151 -53 -239 -163 -239 -298 0 -203 200 -323 410 -244
		26 9 77 17 120 18 81 1 92 -4 213 -89 89 -63 211 -66 307 -7 108 67 113 200
		10 268 -32 21 -58 28 -132 35 -50 5 -101 11 -112 15 -33 10 -76 55 -103 108
		-36 71 -116 151 -182 182 -81 39 -201 44 -292 12z m270 -87 c60 -31 106 -76
		145 -139 63 -103 95 -121 242 -132 132 -10 164 -26 195 -95 17 -38 17 -46 5
		-77 -24 -57 -84 -95 -164 -105 -71 -8 -124 11 -193 70 -102 87 -123 97 -215
		97 -49 0 -112 -8 -160 -20 -66 -17 -86 -19 -126 -10 -84 20 -167 116 -168 192
		0 47 44 131 86 164 42 33 102 63 149 75 50 13 159 2 204 -20z"/>
		<path d="M3334 7966 c-122 -55 -99 -247 36 -287 55 -17 107 -4 147 36 27 27
		33 41 33 76 0 119 -121 218 -216 175z m139 -54 c31 -29 57 -82 57 -114 0 -31
		-63 -88 -97 -88 -98 0 -168 123 -112 194 42 53 102 56 152 8z"/>
		<path d="M4625 7663 c-11 -2 -74 -23 -139 -45 -140 -48 -171 -47 -286 4 -67
		29 -84 33 -165 32 -101 0 -140 -13 -199 -64 -102 -90 -112 -228 -32 -402 85
		-182 -4 -334 -169 -288 -25 7 -86 41 -136 75 -98 69 -162 91 -232 82 -55 -7
		-97 -52 -97 -103 0 -67 27 -97 153 -168 158 -90 262 -295 243 -481 -10 -97
		-30 -151 -101 -270 -91 -152 -110 -218 -109 -370 1 -103 7 -139 38 -259 39
		-150 43 -192 22 -221 -16 -23 -39 -15 -63 22 -15 23 -18 46 -15 153 2 118 1
		129 -21 161 -27 40 -74 50 -113 25 -32 -22 -73 -104 -90 -185 -35 -169 -7
		-293 144 -631 117 -264 161 -441 148 -599 -3 -42 -26 -159 -51 -261 -96 -394
		-82 -590 66 -898 75 -156 114 -259 129 -340 6 -35 15 -158 19 -275 8 -201 10
		-217 40 -307 46 -136 99 -220 205 -325 186 -184 412 -266 695 -252 214 11 362
		66 599 225 86 58 181 116 211 129 75 33 188 58 376 83 253 33 386 70 560 158
		469 235 775 711 834 1301 44 432 -68 885 -306 1241 -39 58 -124 166 -188 240
		-277 320 -360 463 -385 668 -21 161 -31 217 -51 278 -38 118 -106 194 -172
		194 -29 0 -87 -28 -87 -41 0 -4 -15 -24 -34 -43 -40 -44 -81 -48 -97 -12 -16
		33 2 60 64 100 63 41 82 60 102 109 23 56 19 114 -14 182 -35 74 -97 133 -216
		205 -110 67 -227 180 -283 276 -50 86 -90 184 -152 376 -58 175 -95 256 -157
		338 -96 128 -220 190 -378 189 -49 -1 -99 -3 -110 -6z m-435 -143 c120 -53
		202 -55 337 -10 118 39 191 49 255 38 167 -31 291 -167 371 -408 35 -106 104
		-276 135 -335 96 -182 189 -274 400 -395 90 -51 137 -92 174 -149 48 -77 34
		-154 -39 -207 -69 -50 -93 -77 -99 -111 -8 -45 11 -89 45 -101 48 -17 79 -3
		133 59 42 49 57 59 83 59 46 0 101 -62 127 -144 19 -62 38 -183 38 -251 0
		-111 28 -238 74 -338 14 -32 26 -59 26 -61 0 -13 94 -155 154 -235 39 -52 80
		-106 91 -120 10 -14 44 -57 75 -96 189 -235 317 -503 369 -775 46 -241 43
		-519 -9 -760 -55 -257 -197 -531 -373 -716 -69 -73 -215 -192 -286 -232 -182
		-104 -340 -153 -591 -182 -357 -41 -458 -74 -675 -220 -161 -108 -246 -145
		-405 -176 -375 -72 -758 155 -845 501 -10 41 -21 140 -26 240 -9 170 -11 191
		-31 275 -25 108 -48 159 -187 425 -39 74 -74 175 -91 263 -13 67 -13 276 0
		339 5 26 17 82 26 123 63 289 60 443 -12 657 -27 80 -53 140 -139 318 -127
		263 -150 336 -150 475 0 117 18 189 62 240 30 37 52 38 83 5 23 -25 24 -31 22
		-160 -3 -144 5 -178 50 -209 32 -22 55 -20 83 9 22 21 25 33 25 93 0 37 -9
		110 -21 162 -14 63 -21 134 -22 210 -1 156 18 217 130 405 92 158 100 382 17
		561 -43 95 -141 189 -261 250 -73 38 -123 85 -123 116 0 27 40 67 74 73 54 11
		111 -12 198 -78 113 -85 162 -107 243 -107 37 0 78 6 93 14 38 20 78 65 96
		108 19 44 21 164 5 205 -7 15 -18 42 -25 58 -50 119 -57 189 -21 247 65 107
		168 122 337 48z"/>
	</g>
</svg>