<svg version="1.0" xmlns="http://www.w3.org/2000/svg"
 width="93.000000pt" height="668.000000pt" viewBox="0 0 93.000000 668.000000">
	<g transform="translate(0.000000,668.000000) scale(0.100000,-0.100000)"
	fill="#000000" stroke="none">
		<path d="M70 3335 c0 -2217 3 -3335 10 -3335 6 0 10 7 10 15 0 13 51 15 400
		15 260 0 400 4 400 10 0 7 -140 10 -400 10 l-400 0 0 820 0 820 400 0 c260 0
		400 4 400 10 0 7 -140 10 -400 10 l-400 0 0 820 0 820 400 0 c260 0 400 4 400
		10 0 7 -140 10 -400 10 l-400 0 0 820 0 820 400 0 c260 0 400 4 400 10 0 7
		-140 10 -400 10 l-400 0 0 820 c0 540 -3 820 -10 820 -7 0 -10 -1118 -10
		-3335z"/>
	</g>
</svg>
