<svg version="1.0" xmlns="http://www.w3.org/2000/svg"
 width="93.000000pt" height="335.000000pt" viewBox="0 0 93.000000 335.000000"
 preserveAspectRatio="xMidYMid meet">
	<g transform="translate(0.000000,335.000000) scale(0.100000,-0.100000)"
	fill="#000000" stroke="none">
		<path d="M70 1670 c0 -1107 3 -1670 10 -1670 6 0 10 5 10 10 0 7 140 10 400
		10 260 0 400 4 400 10 0 7 -140 10 -400 10 l-400 0 0 820 0 820 400 0 c260 0
		400 4 400 10 0 7 -140 10 -400 10 l-400 0 0 820 c0 540 -3 820 -10 820 -7 0
		-10 -563 -10 -1670z"/>
	</g>
</svg>
