<svg version="1.0" xmlns="http://www.w3.org/2000/svg"
 width="88.000000pt" height="1172.000000pt" viewBox="0 0 88.000000 1172.000000"
 preserveAspectRatio="xMidYMid meet">
	<g transform="translate(0.000000,1172.000000) scale(0.100000,-0.100000)"
	fill="#000000" stroke="none">
		<path d="M70 5880 l0 -5800 405 0 c263 0 405 3 405 10 0 6 -138 10 -395 10
		l-395 0 0 570 0 570 395 0 c257 0 395 4 395 10 0 6 -138 10 -395 10 l-395 0 0
		570 0 570 395 0 c257 0 395 4 395 10 0 6 -138 10 -395 10 l-395 0 0 570 0 570
		395 0 c257 0 395 4 395 10 0 6 -138 10 -395 10 l-395 0 0 570 0 570 395 0
		c257 0 395 4 395 10 0 6 -138 10 -395 10 l-395 0 0 570 0 570 395 0 c257 0
		395 4 395 10 0 6 -138 10 -395 10 l-395 0 0 570 0 570 395 0 c257 0 395 4 395
		10 0 6 -138 10 -395 10 l-395 0 0 570 0 570 395 0 c257 0 395 4 395 10 0 6
		-138 10 -395 10 l-395 0 0 570 0 570 395 0 c257 0 395 4 395 10 0 6 -138 10
		-395 10 l-395 0 0 570 0 570 395 0 c257 0 395 4 395 10 0 6 -138 10 -395 10
		l-395 0 0 570 c0 373 -3 570 -10 570 -7 0 -10 -1940 -10 -5800z"/>
	</g>
</svg>
