<svg xmlns="http://www.w3.org/2000/svg" width="25.000000pt" height="25.000000pt" viewBox="0 0 202.000000 250.000000" preserveAspectRatio="xMidYMid meet">
	<g transform="translate(0.000000,250.000000) scale(0.100000,-0.100000)" fill="#00004d" stroke="none">
		<path d="M946 2478 c-20 -28 -22 -210 -3 -248 15 -30 54 -45 90 -36 43 10 57
		52 57 163 0 125 -10 143 -80 143 -39 0 -52 -4 -64 -22z"/>
		<path d="M299 2221 c-16 -16 -29 -39 -29 -52 0 -14 31 -53 87 -110 73 -75 92
		-89 118 -89 39 0 75 36 75 75 0 23 -18 47 -88 117 -98 98 -117 105 -163 59z"/>
		<path d="M1559 2163 c-75 -73 -89 -92 -89 -118 0 -39 36 -75 75 -75 22 0 46
		18 111 83 99 98 109 123 66 167 -17 16 -40 30 -53 30 -14 0 -53 -31 -110 -87z"/>
		<path d="M900 2043 c-66 -11 -158 -50 -225 -94 -220 -147 -329 -398 -281 -642
		20 -105 58 -185 135 -287 122 -162 184 -326 197 -522 11 -155 -2 -148 284
		-148 l232 0 29 29 c26 27 29 36 29 98 0 121 34 260 90 373 16 30 60 100 99
		155 124 174 156 266 149 435 -8 173 -65 304 -189 430 -72 74 -185 137 -294
		165 -54 14 -194 18 -255 8z"/>
		<path d="M29 1561 c-34 -35 -36 -59 -8 -95 20 -26 22 -26 149 -26 128 0 129 0
		150 27 26 33 20 68 -16 101 -23 20 -35 22 -135 22 -109 0 -111 0 -140 -29z"/>
		<path d="M1709 1561 c-34 -35 -36 -59 -8 -95 20 -26 22 -26 149 -26 127 0 129
		0 149 26 28 36 26 60 -8 95 -29 29 -31 29 -141 29 -110 0 -112 0 -141 -29z"/>
		<path d="M770 317 c-52 -26 -52 -105 0 -132 23 -12 72 -15 250 -15 l222 0 29
		29 c16 16 29 39 29 51 0 12 -13 35 -29 51 l-29 29 -224 0 c-159 0 -230 -4
		-248 -13z"/>
		<path d="M826 99 c-30 -36 -32 -46 -10 -77 15 -21 21 -22 194 -22 173 0 179 1
		194 22 22 31 20 41 -10 77 l-26 31 -158 0 -158 0 -26 -31z"/>
	</g>
</svg>