<svg xmlns="http://www.w3.org/2000/svg" width="25.000000pt" height="25.000000pt" viewBox="0 0 1280.000000 1024.000000" preserveAspectRatio="xMidYMid meet">
	<g transform="translate(0.000000,1024.000000) scale(0.100000,-0.100000)" fill="#00004d" stroke="none">
		<path d="M5236 10224 c-349 -76 -620 -331 -727 -685 -22 -71 -23 -93 -27 -486
		l-3 -413 320 0 321 0 0 308 c0 169 5 336 11 372 19 118 79 198 189 249 l55 26
		1025 0 1025 0 55 -26 c110 -51 170 -131 189 -249 6 -36 11 -203 11 -372 l0
		-308 321 0 320 0 -3 413 c-4 393 -5 415 -27 486 -84 279 -272 500 -525 616
		-40 19 -106 44 -147 57 l-74 23 -1120 2 c-959 1 -1130 -1 -1189 -13z"/>
		<path d="M1100 8525 c-368 -52 -691 -257 -897 -569 -89 -135 -151 -291 -184
		-459 -18 -95 -19 -193 -19 -3226 0 -3413 -4 -3193 56 -3382 63 -199 161 -358
		318 -514 155 -155 304 -248 502 -314 170 -57 217 -61 765 -61 l499 0 0 4270 0
		4270 -472 -1 c-333 -1 -501 -5 -568 -14z"/>
		<path d="M2560 4270 l0 -4270 3840 0 3840 0 0 4270 0 4270 -3840 0 -3840 0 0
		-4270z"/>
		<path d="M10660 4270 l0 -4270 499 0 c548 0 595 4 765 61 196 65 353 164 507
		318 150 150 242 299 308 496 65 196 61 -48 61 3390 0 2828 -2 3130 -16 3215
		-94 549 -535 970 -1094 1045 -78 11 -225 15 -567 15 l-463 0 0 -4270z"/>
	</g>
</svg>